<?xml version="1.0" encoding="UTF-8" standalone="no"?>
<!DOCTYPE svg PUBLIC "-//W3C//DTD SVG 20010904//EN"
              "http://www.w3.org/TR/2001/REC-SVG-20010904/DTD/svg10.dtd">

<svg xmlns="http://www.w3.org/2000/svg"
     width="2.36333in" height="1.11in"
     viewBox="0 0 709 333">
  <path id="Selection"
        fill="none" stroke="black" stroke-width="1"
        d="M 68.00,66.21
           C 49.14,69.16 34.75,71.32 17.00,79.30
             9.31,82.77 1.59,85.16 1.24,95.00
             0.95,96.62 1.01,99.46 1.24,101.00
             6.07,117.92 29.64,103.47 39.00,100.33
             46.33,97.88 52.79,93.91 53.00,105.00
             53.00,105.00 52.00,126.00 52.00,126.00
             52.00,126.00 50.17,147.00 50.17,147.00
             50.17,147.00 44.91,206.00 44.91,206.00
             44.91,206.00 43.00,232.00 43.00,232.00
             43.00,232.00 43.00,248.00 43.00,248.00
             43.01,252.79 43.27,262.19 46.43,265.85
             53.13,273.64 68.49,265.38 73.15,258.91
             77.36,253.05 75.92,241.19 76.00,234.00
             76.00,234.00 77.00,220.00 77.00,220.00
             77.00,220.00 78.00,195.00 78.00,195.00
             78.00,195.00 78.91,185.00 78.91,185.00
             78.91,185.00 83.72,133.00 83.72,133.00
             83.72,133.00 87.42,108.00 87.42,108.00
             87.93,105.18 88.73,99.49 90.58,97.43
             93.43,94.28 99.07,95.18 103.00,94.72
             113.49,93.47 127.90,94.97 135.20,85.82
             139.40,80.56 140.60,70.94 133.81,67.02
             131.69,65.80 128.41,66.00 126.00,66.21
             126.00,66.21 68.00,66.21 68.00,66.21 Z
           M 531.00,186.00
           C 520.83,160.56 512.35,127.86 539.00,108.79
             542.64,106.18 547.66,103.89 552.00,102.76
             563.38,99.80 573.02,104.46 584.00,106.39
             589.49,107.35 594.90,107.00 597.26,100.98
             598.97,96.63 597.25,90.90 595.10,87.00
             586.99,72.29 574.71,71.83 560.00,72.00
             533.67,72.31 507.94,95.57 498.45,119.00
             495.33,126.71 493.77,134.72 493.18,143.00
             492.65,150.44 496.64,171.02 498.34,179.00
             499.22,183.10 501.33,193.28 499.96,196.98
             497.81,202.74 491.74,203.53 488.60,208.09
             485.33,212.84 487.15,219.70 493.02,221.43
             494.83,221.97 497.11,221.97 499.00,222.00
             501.65,222.03 506.69,221.75 509.00,222.60
             516.43,225.33 523.01,238.47 527.06,245.00
             531.57,252.26 536.57,260.64 546.00,260.98
             552.27,261.21 564.43,259.74 563.62,251.00
             562.98,244.18 551.43,231.37 547.38,225.00
             545.45,221.95 542.47,216.71 543.64,213.00
             545.07,208.50 550.98,205.65 555.00,203.86
             563.78,199.97 576.33,196.30 584.00,191.53
             589.69,187.99 593.59,184.13 592.89,177.00
             592.03,168.17 582.91,167.64 576.00,169.00
             560.73,172.03 545.92,180.83 531.00,186.00 Z
           M 400.00,188.00
           C 400.00,188.00 402.73,202.00 402.73,202.00
             402.73,202.00 407.00,251.00 407.00,251.00
             407.00,251.00 407.91,262.00 407.91,262.00
             407.91,262.00 409.83,290.00 409.83,290.00
             410.57,297.62 410.61,305.53 412.51,313.00
             414.72,321.66 419.16,325.27 428.00,324.98
             430.93,324.89 433.24,324.59 435.43,322.43
             439.41,318.52 439.06,311.16 439.00,306.00
             439.00,306.00 438.00,290.00 438.00,290.00
             438.00,290.00 437.09,279.00 437.09,279.00
             437.09,279.00 434.17,241.00 434.17,241.00
             434.17,241.00 432.00,186.00 432.00,186.00
             444.36,186.00 464.27,187.50 475.00,181.59
             481.96,177.75 487.22,167.54 479.86,161.51
             476.83,159.03 469.85,158.27 466.00,158.51
             466.00,158.51 438.00,161.00 438.00,161.00
             438.00,143.62 439.50,129.78 444.42,113.00
             446.31,106.57 452.62,95.07 450.26,89.02
             447.32,81.46 436.81,80.97 430.00,81.00
             414.50,81.07 414.38,89.38 412.42,102.00
             412.42,102.00 408.17,135.00 408.17,135.00
             407.50,142.02 407.97,149.75 404.01,155.99
             394.40,171.09 365.79,163.73 358.65,180.00
             353.51,191.73 366.38,197.35 376.00,196.96
             385.45,196.58 392.02,192.27 400.00,188.00 Z
           M 605.00,289.00
           C 603.41,283.61 600.42,279.20 595.00,277.01
             585.83,273.29 577.45,280.73 577.34,290.00
             577.29,293.92 578.77,299.35 580.20,303.00
             585.26,315.86 591.83,319.06 605.00,319.00
             625.39,318.91 636.65,303.12 645.85,287.00
             652.22,275.83 657.83,263.47 661.12,251.00
             661.12,251.00 666.66,218.00 666.66,218.00
             669.59,204.05 674.73,190.64 681.26,178.00
             681.26,178.00 702.86,139.00 702.86,139.00
             705.72,133.88 710.41,127.20 708.49,121.04
             706.80,115.64 701.85,115.06 697.00,115.00
             684.63,114.86 678.76,120.35 671.51,130.00
             661.30,143.61 657.47,164.74 647.00,176.00
             643.75,164.75 645.02,152.61 645.00,141.00
             644.99,132.27 643.44,117.36 634.00,113.74
             631.83,112.91 628.35,112.96 626.00,113.01
             607.73,113.46 608.39,127.46 609.84,141.00
             609.84,141.00 612.28,162.00 612.28,162.00
             612.28,162.00 617.48,199.00 617.48,199.00
             617.48,199.00 629.53,232.00 629.53,232.00
             630.47,237.56 628.18,244.48 627.00,250.00
             626.00,254.67 623.77,266.29 622.10,270.00
             619.09,276.68 610.91,284.77 605.00,289.00 Z
           M 295.00,125.46
           C 285.65,127.54 279.92,130.33 272.00,135.67
             266.81,139.17 262.16,143.17 258.17,148.01
             255.91,150.76 254.24,153.62 253.10,157.00
             249.41,167.98 254.14,178.22 262.04,185.91
             272.57,196.16 290.40,202.01 304.00,207.85
             311.52,211.08 325.57,216.74 323.86,227.00
             321.46,241.49 296.11,248.84 285.01,241.30
             278.68,237.00 277.30,229.75 271.96,227.75
             266.29,225.63 257.31,231.23 254.57,236.09
             253.20,238.51 252.88,241.26 253.11,244.00
             254.42,259.59 274.63,270.83 289.00,271.00
             289.00,271.00 300.00,271.00 300.00,271.00
             319.67,270.77 344.09,257.40 352.13,239.00
             356.47,229.05 358.46,215.88 350.79,207.01
             342.74,197.72 323.49,188.24 312.00,183.42
             301.75,179.13 293.44,177.46 287.15,167.00
             281.18,157.09 293.46,153.73 301.00,154.04
             312.31,154.50 321.98,162.18 332.00,166.69
             336.75,168.83 343.86,171.25 349.00,169.26
             351.93,168.13 354.08,165.78 355.43,163.00
             359.52,154.54 354.38,147.66 348.00,142.33
             342.59,137.81 334.54,134.62 328.00,132.00
             314.70,126.68 309.94,123.40 295.00,125.46 Z
           M 181.00,128.23
           C 175.98,129.58 172.51,130.77 168.00,133.34
             153.53,141.58 145.08,157.57 145.00,174.00
             144.91,192.28 145.44,204.32 151.33,222.00
             153.96,229.87 156.96,236.28 161.92,243.00
             170.61,254.78 185.11,263.82 200.00,264.00
             212.26,264.14 212.08,263.99 224.00,262.27
             228.99,261.55 233.91,261.20 237.91,257.72
             240.17,255.75 242.18,252.85 243.15,250.00
             244.84,245.01 244.52,234.64 238.90,232.13
             235.69,230.69 230.90,233.82 228.00,235.24
             217.88,240.21 207.62,243.98 197.00,238.10
             194.29,236.59 189.73,233.45 189.60,230.00
             189.44,225.50 199.50,219.99 203.00,217.67
             214.69,209.91 235.82,199.37 243.94,188.91
             249.79,181.38 245.98,168.96 242.57,161.00
             235.16,143.68 215.25,128.23 196.00,128.23
             191.01,127.94 185.95,127.78 181.00,128.23 Z
           M 194.00,155.71
           C 197.65,155.92 200.53,156.13 204.00,157.47
             217.62,162.71 217.73,173.94 208.79,183.96
             202.94,190.52 189.79,195.13 181.04,194.38
             173.83,193.76 172.69,181.60 173.17,176.00
             174.37,161.99 179.86,156.06 194.00,155.71 Z" />
</svg>
